<?xml version="1.0" standalone="no"?>
<!DOCTYPE svg PUBLIC "-//W3C//DTD SVG 20010904//EN"
 "http://www.w3.org/TR/2001/REC-SVG-20010904/DTD/svg10.dtd">
<svg version="1.0" xmlns="http://www.w3.org/2000/svg"
 width="260.000000pt" height="260.000000pt" viewBox="0 0 260.000000 260.000000"
 preserveAspectRatio="xMidYMid meet">
<metadata>
Created by potrace 1.11, written by Peter Selinger 2001-2013
</metadata>
<g transform="translate(0.000000,260.000000) scale(0.100000,-0.100000)"
fill="#000000" stroke="none">
<path d="M775 2299 c-284 -164 -519 -299 -521 -299 -3 0 -22 -12 -44 -26 l-39
-26 0 -648 0 -648 139 -80 c77 -45 141 -78 143 -74 2 4 3 296 3 648 l-1 642
119 68 c192 111 197 114 385 222 99 57 184 102 188 100 4 -2 9 -469 10 -1038
0 -569 2 -1040 2 -1047 1 -6 32 -29 70 -51 l69 -40 73 43 74 43 -1 1051 0
1050 30 -18 c17 -10 119 -69 226 -131 107 -62 250 -144 317 -183 l123 -71 -1
-605 c0 -334 0 -625 1 -649 l0 -43 55 31 c31 17 95 54 142 83 l87 52 1 643 c0
354 -2 647 -5 651 -3 4 -27 20 -55 36 -27 16 -115 66 -195 112 -80 46 -156 90
-170 98 -205 119 -498 288 -510 295 -54 33 -168 97 -181 102 -10 4 -204 -102
-534 -293z"/>
<path d="M1539 1988 c-2 -25 2 -202 4 -203 1 -1 94 -55 207 -119 113 -65 224
-129 247 -142 l41 -24 4 63 c1 34 2 82 0 107 l-3 45 -166 95 c-91 52 -189 108
-217 123 -28 16 -66 38 -83 49 -25 14 -33 16 -34 6z"/>
<path d="M1539 1633 c-3 -58 3 -189 9 -195 15 -14 477 -278 486 -278 4 0 6 46
6 103 0 114 7 101 -86 153 -24 13 -109 62 -189 109 -81 47 -150 85 -153 85 -4
0 -18 9 -32 20 -31 24 -40 25 -41 3z"/>
<path d="M1539 1267 c-1 -92 0 -169 4 -173 9 -10 490 -284 493 -281 8 7 5 199
-2 207 -5 5 -118 71 -251 148 l-243 140 -1 -41z"/>
</g>
</svg>
